<?xml version="1.0" standalone="no"?>
<!DOCTYPE svg PUBLIC "-//W3C//DTD SVG 20010904//EN"
 "http://www.w3.org/TR/2001/REC-SVG-20010904/DTD/svg10.dtd">
<svg version="1.0" xmlns="http://www.w3.org/2000/svg"
 width="1024.000000pt" height="1024.000000pt" viewBox="0 0 1024.000000 1024.000000"
 preserveAspectRatio="xMidYMid meet">

<g transform="translate(0.000000,1024.000000) scale(0.100000,-0.100000)"
fill="#000000" stroke="none">
<path d="M5167 7811 c-157 -165 -234 -374 -206 -561 6 -41 19 -95 30 -119 29
-67 97 -149 154 -187 l50 -34 5 227 5 228 25 0 25 0 3 -227 c1 -126 5 -228 8
-228 3 0 25 13 49 30 140 96 215 285 185 468 -22 140 -76 251 -181 373 -86 99
-86 99 -152 30z"/>
<path d="M4520 7476 c-533 -200 -913 -492 -1241 -951 -211 -297 -372 -663
-424 -967 l-6 -38 -128 0 c-114 0 -129 -2 -149 -20 -30 -28 -29 -80 1 -108
l23 -22 752 0 c739 0 752 0 772 20 27 27 27 83 -2 110 -21 20 -32 20 -570 20
-515 0 -548 1 -548 18 1 83 121 428 211 603 l20 41 22 -20 c35 -32 69 -36 100
-12 41 33 37 74 -13 120 l-40 37 65 94 c162 239 416 496 645 655 170 118 410
237 612 303 100 33 130 80 87 135 -28 36 -53 33 -189 -18z"/>
<path d="M5771 7501 c-24 -24 -27 -68 -6 -98 9 -13 55 -34 127 -59 366 -125
761 -393 1020 -693 99 -114 195 -240 234 -307 l26 -44 -36 -34 c-45 -42 -49
-84 -10 -115 34 -27 46 -26 82 4 36 30 35 31 89 -85 76 -161 173 -458 173
-529 0 -21 -1 -21 -536 -21 -535 0 -565 -2 -586 -34 -15 -21 -8 -72 12 -94
l21 -22 748 0 748 0 21 23 c29 31 28 72 -3 102 -23 24 -30 25 -144 25 l-120 0
-10 38 c-6 20 -24 90 -41 155 -109 420 -348 827 -684 1162 -157 156 -273 249
-448 361 -175 112 -507 262 -617 280 -31 5 -43 2 -60 -15z"/>
<path d="M4715 6875 c-22 -8 -41 -15 -42 -15 -10 0 1 -77 17 -125 28 -81 71
-144 145 -213 77 -72 150 -109 250 -125 l75 -12 0 -130 0 -130 -48 -18 c-213
-75 -281 -356 -127 -525 39 -44 104 -86 148 -97 l27 -7 0 -180 0 -180 -87 86
c-113 111 -185 164 -304 226 -149 77 -340 117 -438 90 -61 -16 -79 -65 -42
-111 17 -22 30 -25 123 -30 241 -14 438 -142 756 -491 29 -32 57 -58 62 -58 5
0 61 59 126 131 261 292 445 404 685 418 85 5 111 10 128 25 26 24 27 66 2 97
-18 23 -26 24 -123 23 -236 -2 -443 -99 -650 -305 l-98 -97 0 102 c0 55 3 138
6 183 7 77 8 81 33 86 80 17 176 117 207 216 48 155 -42 347 -187 398 -56 20
-59 28 -59 177 l0 102 72 12 c182 32 329 157 394 338 35 94 32 118 -13 139
-29 14 -54 17 -125 13 -74 -5 -100 -11 -156 -39 -104 -51 -185 -141 -207 -231
-6 -24 -4 -28 14 -28 38 0 121 38 177 80 58 44 87 48 92 14 4 -25 -34 -56
-129 -108 -145 -79 -290 -68 -441 35 -59 40 -79 64 -71 87 8 23 38 12 107 -38
62 -45 84 -55 164 -73 22 -5 23 -3 16 26 -17 82 -101 184 -185 228 -95 48
-215 62 -294 34z m590 -904 c160 -72 142 -306 -27 -352 -135 -36 -264 96 -228
233 13 48 83 123 122 131 51 10 95 6 133 -12z"/>
<path d="M4115 6477 c-4 -31 -2 -99 4 -150 20 -174 77 -293 196 -412 90 -91
154 -127 258 -146 53 -10 78 -10 124 0 65 14 146 57 141 73 -2 6 -40 23 -84
38 -43 14 -104 39 -134 55 -57 30 -203 170 -230 219 -13 26 -13 29 5 43 19 14
23 11 65 -39 105 -124 220 -206 318 -224 l32 -6 0 44 c0 127 -54 259 -147 359
-111 118 -263 185 -444 196 l-97 6 -7 -56z"/>
<path d="M6155 6519 c-112 -17 -208 -56 -285 -117 -133 -105 -201 -229 -216
-396 l-7 -78 34 7 c86 19 163 68 265 172 92 93 103 101 120 89 17 -13 17 -16
4 -42 -8 -16 -51 -65 -95 -109 -86 -86 -150 -125 -277 -170 -43 -15 -78 -31
-78 -36 0 -17 90 -60 147 -70 184 -32 399 102 503 315 56 115 73 190 74 326
l1 115 -65 1 c-36 1 -92 -2 -125 -7z"/>
<path d="M2583 5078 c-32 -15 -44 -57 -27 -96 7 -18 14 -33 16 -34 2 -2 320
-5 708 -8 l705 -5 5 -183 c5 -167 7 -185 24 -198 30 -22 79 -17 104 9 21 22
22 32 22 221 0 221 -3 232 -68 276 l-36 25 -715 2 c-494 1 -723 -1 -738 -9z"/>
<path d="M6415 5071 c-23 -10 -53 -33 -68 -50 l-27 -33 0 -202 c0 -233 4 -246
71 -246 26 0 46 7 59 20 19 19 20 33 20 200 l0 180 708 0 c662 0 710 1 725 18
8 9 19 29 22 44 6 22 1 33 -23 58 l-30 30 -709 0 c-665 0 -710 -2 -748 -19z"/>
<path d="M4780 4883 c-45 -17 -62 -61 -41 -102 6 -10 50 -49 98 -88 132 -106
244 -227 284 -308 33 -67 34 -74 37 -207 l4 -138 -516 0 -516 0 0 90 c0 102
-15 130 -70 130 -55 0 -70 -28 -70 -130 l0 -90 -264 0 c-251 0 -265 -1 -290
-21 -34 -27 -37 -86 -5 -115 20 -18 50 -19 848 -21 454 -1 838 -2 854 -2 l27
-1 0 -125 c0 -112 2 -127 20 -145 11 -11 33 -20 50 -20 17 0 39 9 50 20 21 21
23 34 24 188 l1 83 857 2 857 2 22 22 c32 31 30 80 -5 110 -27 23 -28 23 -297
23 l-269 0 0 94 c0 87 -2 96 -22 110 -31 22 -74 20 -98 -4 -17 -17 -20 -33
-20 -110 l0 -90 -515 0 -515 0 3 133 c2 124 4 136 33 197 50 107 121 182 343
368 36 31 51 50 51 68 0 63 -48 94 -106 69 -84 -35 -314 -244 -367 -334 -19
-32 -21 -32 -34 -15 -56 78 -136 164 -214 228 -134 113 -189 144 -229 129z"/>
<path d="M2700 4647 c-32 -16 -47 -58 -34 -94 16 -48 41 -53 267 -53 167 0
214 3 237 15 34 17 47 55 34 94 -16 46 -42 51 -269 51 -149 0 -217 -4 -235
-13z"/>
<path d="M7155 4653 c-56 -14 -76 -91 -34 -129 20 -18 42 -19 328 -22 330 -2
344 0 368 50 17 34 1 81 -33 97 -25 11 -585 15 -629 4z"/>
<path d="M3430 4639 c0 -5 -5 -7 -12 -3 -7 4 -8 3 -4 -4 5 -8 13 -8 32 0 20 9
27 9 34 -1 4 -8 13 -10 20 -6 9 6 9 9 -1 16 -20 12 -69 11 -69 -2z"/>
<path d="M6916 4634 c-9 -8 -16 -21 -16 -27 0 -7 5 -4 11 5 5 10 17 22 27 27
9 6 12 11 5 11 -6 0 -19 -7 -27 -16z"/>
<path d="M6970 4630 c13 -24 25 -27 16 -4 -5 14 -4 15 9 4 9 -7 14 -19 11 -26
-3 -9 0 -11 11 -7 13 5 15 2 11 -15 -4 -12 -2 -24 2 -27 20 -12 2 59 -19 76
-32 26 -55 25 -41 -1z"/>
<path d="M3523 4598 c1 -15 6 -23 11 -18 4 4 4 16 -2 26 -9 16 -10 14 -9 -8z"/>
<path d="M6941 4584 c0 -11 3 -14 6 -6 3 7 2 16 -1 19 -3 4 -6 -2 -5 -13z"/>
<path d="M3385 4573 c2 -10 4 -21 4 -25 2 -13 40 -48 54 -48 8 0 8 3 -2 9 -12
8 -12 12 -2 24 10 13 8 15 -14 13 -16 -2 -24 1 -22 8 3 6 9 10 15 9 7 -2 9 4
5 14 -4 11 -8 13 -11 5 -3 -10 -7 -10 -17 -2 -10 9 -13 7 -10 -7z m45 -37 c0
-3 -4 -8 -10 -11 -5 -3 -10 -1 -10 4 0 6 5 11 10 11 6 0 10 -2 10 -4z"/>
<path d="M6891 4563 c-1 -12 5 -25 11 -29 18 -11 48 -12 42 -2 -3 5 -13 7 -22
6 -9 -2 -18 7 -23 22 -6 23 -7 23 -8 3z"/>
<path d="M3515 4533 l-17 -28 23 22 c12 12 20 25 17 28 -3 3 -13 -7 -23 -22z"/>
<path d="M6947 4549 c7 -7 15 -10 18 -7 3 3 -2 9 -12 12 -14 6 -15 5 -6 -5z"/>
<path d="M6976 4532 c-10 -17 27 -24 43 -7 9 9 11 15 4 15 -6 0 -14 -6 -16
-12 -4 -10 -8 -10 -15 1 -6 8 -12 9 -16 3z"/>
<path d="M6938 4503 c7 -3 16 -2 19 1 4 3 -2 6 -13 5 -11 0 -14 -3 -6 -6z"/>
<path d="M3755 4415 c-42 -42 -24 -104 35 -120 21 -5 20 -3 -8 15 -22 14 -32
26 -28 36 3 9 1 12 -4 9 -13 -8 -13 7 -1 38 13 32 55 43 90 22 l26 -16 -24 20
c-31 28 -57 26 -86 -4z"/>
<path d="M6622 4417 c-26 -27 -29 -69 -6 -91 21 -22 54 -39 61 -32 3 3 -2 8
-11 12 -9 3 -13 10 -10 15 3 5 2 9 -3 8 -24 -4 -30 4 -28 40 3 51 11 61 48 60
31 -1 31 -1 7 -9 -15 -5 -18 -8 -8 -9 9 -1 24 2 33 5 13 5 14 8 3 15 -24 16
-64 9 -86 -14z"/>
<path d="M6720 4390 c17 -32 5 -70 -22 -70 -18 0 -20 -2 -9 -12 10 -11 16 -8
32 11 22 27 23 82 1 89 -11 3 -12 0 -2 -18z"/>
<path d="M3862 4365 c0 -16 2 -22 5 -12 2 9 2 23 0 30 -3 6 -5 -1 -5 -18z"/>
<path d="M3834 4314 c-18 -14 -18 -15 4 -4 12 6 22 13 22 15 0 8 -5 6 -26 -11z"/>
<path d="M2965 4085 c-55 -54 -12 -145 67 -145 32 0 78 48 78 81 0 41 -9 58
-41 74 -41 22 -77 18 -104 -10z"/>
<path d="M7386 4089 c-21 -16 -26 -29 -26 -64 0 -56 36 -90 89 -81 50 8 71 32
71 82 0 34 -5 47 -26 63 -15 12 -39 21 -54 21 -15 0 -39 -9 -54 -21z"/>
<path d="M6944 3361 c-161 -26 -275 -104 -330 -224 -56 -124 -31 -261 63 -348
62 -57 142 -91 323 -139 85 -23 173 -51 195 -63 78 -43 79 -113 2 -150 -47
-23 -196 -27 -277 -8 -63 16 -139 51 -189 89 l-34 25 -36 -44 c-20 -24 -62
-73 -93 -109 l-57 -65 26 -27 c37 -38 183 -112 273 -138 107 -31 292 -38 393
-16 152 34 262 113 322 232 27 54 30 67 30 159 -1 85 -4 107 -24 145 -72 137
-147 180 -456 261 -148 39 -179 55 -173 88 2 8 18 23 35 34 72 42 254 16 354
-50 47 -31 34 -40 148 102 75 94 79 101 63 117 -33 32 -150 88 -226 108 -87
22 -256 33 -332 21z"/>
<path d="M3460 2745 l0 -595 145 0 145 0 0 595 0 595 -145 0 -145 0 0 -595z"/>
<path d="M4202 2813 c-2 -291 0 -558 3 -595 l7 -68 144 0 144 0 0 225 0 225
255 0 255 0 0 136 0 137 -255 -8 -255 -7 0 106 0 106 280 -2 280 -3 1 110 c1
61 2 121 3 135 l1 25 -430 3 -430 2 -3 -527z"/>
<path d="M5339 3336 c-2 -2 -3 -270 -1 -595 l2 -591 465 0 465 0 0 135 0 135
-320 0 -320 0 0 95 0 95 252 2 252 3 4 133 4 132 -256 0 -256 0 0 93 0 92 317
0 318 0 3 138 3 137 -464 0 c-255 0 -466 -2 -468 -4z"/>
<path d="M5000 1798 c-78 -40 -112 -144 -74 -225 41 -85 153 -119 236 -70 108
63 117 216 16 290 -42 31 -123 34 -178 5z m145 -78 c63 -59 21 -170 -65 -170
-45 0 -85 39 -95 92 -7 34 -4 41 29 74 32 32 41 36 73 31 20 -4 46 -16 58 -27z"/>
<path d="M6321 1798 c-107 -53 -120 -210 -24 -284 51 -39 132 -45 192 -14 l43
22 -27 28 c-26 28 -29 28 -56 15 -41 -22 -82 -19 -107 8 -32 34 -42 77 -27
114 24 58 81 78 137 49 24 -13 28 -12 47 8 12 12 21 25 21 29 0 14 -81 47
-117 47 -21 0 -58 -10 -82 -22z"/>
<path d="M6935 1808 c-92 -32 -135 -157 -86 -248 39 -74 149 -102 232 -60 33
17 38 24 30 39 -20 36 -38 44 -63 27 -26 -18 -70 -21 -99 -6 -25 14 -49 62
-49 97 0 68 89 116 146 78 26 -17 28 -17 45 6 27 35 24 45 -21 63 -46 18 -91
19 -135 4z"/>
<path d="M7249 1797 c-52 -35 -63 -91 -27 -140 7 -10 42 -28 77 -40 70 -24 81
-36 55 -62 -20 -19 -67 -14 -94 10 -24 21 -33 19 -53 -15 l-18 -29 40 -21 c44
-22 119 -27 154 -9 36 18 57 52 57 92 0 48 -24 72 -92 92 -74 21 -82 28 -69
52 15 29 43 33 89 13 l40 -18 13 27 c7 14 15 29 17 32 5 11 -77 39 -117 39
-23 0 -51 -9 -72 -23z"/>
<path d="M2950 1645 l0 -165 35 0 35 0 0 64 0 64 75 4 75 3 2 -50 c0 -27 1
-58 0 -67 -1 -14 6 -18 38 -18 l40 0 0 165 0 165 -40 0 -40 0 0 -65 0 -66 -72
3 -73 3 -3 63 -3 62 -34 0 -35 0 0 -165z"/>
<path d="M3385 1715 c57 -84 65 -100 65 -142 0 -79 7 -93 46 -93 l34 0 0 68
c0 67 1 71 58 153 32 46 62 90 66 97 5 9 -3 12 -31 12 -35 0 -42 -5 -82 -60
-24 -33 -46 -60 -50 -59 -3 0 -23 27 -44 60 -37 57 -40 59 -83 59 l-44 0 65
-95z"/>
<path d="M3740 1676 c0 -73 3 -148 7 -166 l6 -33 86 5 c51 3 100 12 118 21
115 60 116 231 2 289 -25 13 -58 18 -126 18 l-93 0 0 -134z m162 64 c47 -13
68 -43 68 -96 0 -57 -41 -94 -106 -94 l-44 0 0 100 c0 112 0 112 82 90z"/>
<path d="M4150 1644 l0 -167 95 5 c88 5 99 8 133 35 73 59 89 150 39 224 -35
53 -78 69 -179 69 l-88 0 0 -166z m145 96 c51 -12 75 -41 75 -92 0 -31 -7 -46
-30 -69 -25 -26 -36 -30 -72 -27 l-43 3 -3 84 c-4 119 -4 119 73 101z"/>
<path d="M4550 1646 l0 -166 40 0 40 0 0 55 c0 46 3 55 18 55 25 0 34 -9 67
-62 27 -43 34 -48 68 -48 20 0 37 3 37 8 0 4 -16 32 -34 62 -34 54 -34 54 -14
68 28 20 49 75 42 111 -4 16 -17 40 -31 53 -22 20 -36 23 -129 26 l-104 4 0
-166z m182 81 c5 -7 7 -23 6 -37 -3 -23 -8 -25 -55 -28 l-53 -3 0 39 c0 21 3
42 8 46 10 11 85 -3 94 -17z"/>
<path d="M5350 1645 l0 -165 35 0 c31 0 35 3 35 28 0 63 8 72 62 72 60 0 102
22 123 66 19 40 19 56 1 99 -21 50 -59 65 -166 65 l-90 0 0 -165z m178 83 c6
-6 12 -21 12 -33 0 -36 -49 -62 -96 -51 -19 5 -24 13 -24 37 0 17 5 39 11 51
9 17 17 19 47 13 21 -4 43 -11 50 -17z"/>
<path d="M5740 1645 l0 -165 35 0 35 0 0 100 c0 95 8 120 28 85 4 -9 46 -54
92 -100 82 -83 84 -85 132 -85 l48 0 0 165 0 165 -34 0 c-31 0 -34 -3 -40 -37
-3 -21 -6 -71 -6 -110 0 -40 -3 -73 -7 -73 -5 0 -53 49 -108 110 -93 101 -103
109 -137 109 l-38 1 0 -165z"/>
<path d="M6640 1645 l0 -165 38 0 37 0 0 165 0 165 -37 0 -38 0 0 -165z"/>
</g>
</svg>
